<svg width="2048" height="2157" viewBox="0 0 2048 2157" fill="none" xmlns="http://www.w3.org/2000/svg">
  <rect width="2047.1" height="2156.65" rx="250" ry="250" fill="#4F46E5"/>
  <path d="M990.424 1524.53L977.652 1627.96L418.326 1558.9L532.088 637.545L647.018 651.736L546.027 1469.65L990.424 1524.53Z" fill="white"/>
  <path d="M761.422 997.131C751.399 734.193 930.275 562.557 1224.72 551.333C1519.16 540.109 1709.94 697.654 1719.96 960.592C1729.98 1223.53 1551.75 1395.14 1257.31 1406.37C962.869 1417.59 771.445 1260.07 761.422 997.131ZM868.141 993.063C875.37 1182.71 1023.91 1296.16 1252.78 1287.43C1481 1278.73 1620.47 1154.31 1613.24 964.661C1606.01 775.01 1457.47 661.567 1229.25 670.266C1000.38 678.991 860.911 803.413 868.141 993.063Z" fill="white"/>
  <circle cx="1241.12" cy="979.312" r="118.582" transform="rotate(82.1454 1241.12 979.312)" fill="white"/>
</svg>
