<svg width="1494" height="945" viewBox="0 0 1494 945" fill="none" xmlns="http://www.w3.org/2000/svg">
<path d="M1492.97 288.984V318.896H1368.43V398H1486.52V427.562H1368.43V512.422H1492.97V542.332H1335.38V288.984H1492.97Z" fill="white" stroke="white" stroke-width="1.65369"/>
<path d="M1124.35 288.984L1124.54 289.538L1199.11 502.3L1273.68 289.538L1273.88 288.984H1308.61L1308.2 290.098L1215.41 541.792L1215.21 542.332H1183.01L1182.81 541.792L1090.02 290.098L1089.61 288.984H1124.35Z" fill="white" stroke="white" stroke-width="1.65369"/>
<path d="M1062.84 288.984V542.332H1029.79V288.984H1062.84Z" fill="white" stroke="white" stroke-width="1.65369"/>
<path d="M998.303 288.984V318.896H918.939V542.332H885.89V318.896H806.526V288.984H998.303Z" fill="white" stroke="white" stroke-width="1.65369"/>
<path d="M748.848 288.984L749.047 289.525L841.84 541.22L842.251 542.332H807.513L807.318 541.779L782.221 470.295H683.273L658.176 541.779L657.981 542.332H623.243L623.654 541.22L716.447 289.525L716.646 288.984H748.848ZM693.099 441.955H772.396L732.747 329.016L693.099 441.955Z" fill="white" stroke="white" stroke-width="1.65369"/>
<path d="M748.848 0.82666L749.047 1.36768L841.84 253.062L842.251 254.174H807.513L807.318 253.622L782.221 182.137H683.273L658.176 253.622L657.981 254.174H623.243L623.654 253.062L716.447 1.36768L716.646 0.82666H748.848ZM693.099 153.797H772.396L732.747 40.8579L693.099 153.797Z" fill="white" stroke="white" stroke-width="1.65369"/>
<path d="M603.803 288.984V318.896H479.265V398H597.35V427.562H479.265V512.422H603.803V542.332H446.214V288.984H603.803Z" fill="white" stroke="white" stroke-width="1.65369"/>
<path d="M339.119 288.984C363.532 288.984 383.807 296.451 397.985 309.702C412.169 322.958 420.182 341.937 420.182 364.813C420.182 399.846 401.349 427.196 369.983 437.503L427.751 541.103L428.437 542.332H389.733L389.498 541.899L335.836 442.736H276.979V542.332H243.929V288.984H339.119ZM276.979 413.349H336.328C352.319 413.349 364.735 409.028 373.149 400.997C381.558 392.971 386.085 381.132 386.085 365.86C386.085 350.957 381.266 339.159 372.527 331.081C363.78 322.995 351.007 318.546 334.934 318.546H276.979V413.349Z" fill="white" stroke="white" stroke-width="1.65369"/>
<path d="M115.03 284.798C170.159 284.798 212.231 318.365 220.326 369.044L220.479 370.001H187.115L186.962 369.371C179.036 336.805 150.611 315.407 115.03 315.407C90.6804 315.407 70.643 325.241 56.6758 342.635C42.6946 360.047 34.75 385.096 34.75 415.572C34.75 446.312 42.6087 471.404 56.5664 488.792C70.509 506.16 90.5882 515.911 115.204 515.911C151.89 515.911 178.025 498.294 186.972 468.013L187.147 467.42H220.551L220.315 468.434C214.521 493.455 202.215 512.997 184.312 526.276C166.414 539.551 142.987 546.519 115.03 546.519C80.1066 546.519 51.5251 533.832 31.6855 511.067C11.8571 488.315 0.827197 455.574 0.827148 415.572C0.827148 375.914 11.9905 343.218 31.8828 320.424C51.7852 297.619 80.3644 284.798 115.03 284.798Z" fill="white" stroke="white" stroke-width="1.65369"/>
<path d="M1145.09 647.579L1099.25 761.495L1099.76 761.7L1248.35 689.428L1248.68 689.267L1287.51 704.895L1285.79 705.703L1148.87 770.178L1200.84 941.66L1201.34 943.31L1162.15 927.54L1162.04 927.16L1118.8 783.472L1083.52 800.583L1050.51 882.607L1019.85 870.268L1114.43 635.24L1145.09 647.579Z" fill="white" stroke="white" stroke-width="1.65369"/>
<path d="M862.96 594.099C907.298 567.963 958.15 577.003 990.365 616.8L990.968 617.545L964.076 633.398L963.624 632.917C940.7 608.594 907.024 603.655 878.503 620.467C858.98 631.976 847.887 649.907 845.503 671.501C843.116 693.123 849.456 718.472 864.938 744.736C880.555 771.229 899.617 789.128 919.659 797.5C939.674 805.86 960.726 804.746 980.463 793.112C995.189 784.431 1005.55 773.206 1011.2 760.389C1016.86 747.576 1017.85 733.117 1013.74 717.913L1013.57 717.305L1040.5 701.435L1040.82 702.408C1048.87 726.694 1048.91 749.352 1041.27 769.279C1033.63 789.204 1018.34 806.315 995.866 819.562C967.787 836.115 938.363 838.714 910.861 828.493C883.381 818.281 857.904 795.303 837.597 760.854C817.465 726.702 809.828 693.26 814.229 664.206C818.634 635.13 835.086 610.53 862.96 594.099Z" fill="white" stroke="white" stroke-width="1.65369"/>
<path d="M519.795 668.409L492.415 890.162L612.898 905.039L609.233 934.723L455.948 915.797L486.993 664.358L519.795 668.409Z" fill="white" stroke="white" stroke-width="1.65369"/>
<path d="M361.319 570.89C383.004 570.131 401.473 575.815 414.701 586.503C427.941 597.2 435.871 612.863 436.537 631.917C437.456 658.163 419.273 683.382 395.123 689.019C412.111 690.741 426.308 697.384 436.447 707.786C446.74 718.346 452.807 732.737 453.399 749.659C454.181 772.01 446.791 790.187 432.387 802.998C418.002 815.791 396.714 823.154 369.831 824.095L274.001 827.449L265.141 574.256L361.319 570.89ZM306.004 796.924L364.096 794.891C382.918 794.232 397 789.916 406.237 782.266C415.439 774.646 419.945 763.626 419.443 749.276C418.941 734.939 413.516 724.404 403.361 717.589C393.158 710.74 378.066 707.57 358.098 708.268L302.969 710.198L306.004 796.924ZM301.966 681.526L348.205 679.908C366.679 679.261 380.687 675.077 389.942 667.786C399.158 660.526 403.755 650.112 403.288 636.746C402.859 624.486 398.338 615.212 390.256 609.111C382.148 602.99 370.343 599.98 355.2 600.51L299.199 602.47L301.966 681.526Z" fill="white" stroke="white" stroke-width="1.65369"/>
<path d="M549.066 762.802C547.699 726.954 559.214 697.26 581.168 676.151C603.112 655.053 635.405 642.608 675.468 641.081C715.532 639.553 748.636 649.505 772.078 668.874C795.532 688.252 809.23 716.985 810.596 752.833C811.963 788.681 800.492 818.373 778.582 839.48C756.682 860.578 724.431 873.022 684.368 874.549C644.304 876.076 611.158 866.125 587.672 846.759C564.174 827.383 550.432 798.651 549.066 762.802ZM579.652 761.636C580.623 787.118 591.076 807.425 608.935 821.085C626.811 834.758 652.186 841.828 683.076 840.651C713.878 839.476 738.598 830.496 755.36 815.503C772.105 800.524 780.982 779.481 780.01 753.999C779.039 728.517 768.586 708.21 750.749 694.55C732.894 680.876 707.562 673.804 676.76 674.978C645.87 676.155 621.108 685.137 604.324 700.131C587.557 715.111 578.681 736.154 579.652 761.636Z" fill="white" stroke="white" stroke-width="1.65369"/>
<path d="M648.103 808.605C630.514 811.032 614.288 798.74 611.861 781.151C609.435 763.561 621.727 747.335 639.316 744.909C656.905 742.482 673.131 754.774 675.558 772.363C677.984 789.953 665.692 806.179 648.103 808.605Z" fill="white"/>
</svg>
